<?xml version="1.0" encoding="UTF-8"?>
<svg width="256px" height="256px" viewBox="0 0 256 256" version="1.1" xmlns="http://www.w3.org/2000/svg" xmlns:xlink="http://www.w3.org/1999/xlink">
    <defs></defs>
    <g id="Assets" stroke="none" stroke-width="1" fill="none" fill-rule="evenodd">
        <g id="Communities" fill-rule="nonzero" fill="#FFFFFF">
            <path d="M170.666667,117.333333 C188.373333,117.333333 202.56,103.04 202.56,85.3333333 C202.56,67.6266667 188.373333,53.3333333 170.666667,53.3333333 C152.96,53.3333333 138.666667,67.6266667 138.666667,85.3333333 C138.666667,103.04 152.96,117.333333 170.666667,117.333333 Z M85.3333333,117.333333 C103.04,117.333333 117.226667,103.04 117.226667,85.3333333 C117.226667,67.6266667 103.04,53.3333333 85.3333333,53.3333333 C67.6266667,53.3333333 53.3333333,67.6266667 53.3333333,85.3333333 C53.3333333,103.04 67.6266667,117.333333 85.3333333,117.333333 Z M85.3333333,138.666667 C60.48,138.666667 10.6666667,151.146667 10.6666667,176 L10.6666667,202.666667 L160,202.666667 L160,176 C160,151.146667 110.186667,138.666667 85.3333333,138.666667 Z M170.666667,138.666667 C167.573333,138.666667 164.053333,138.88 160.32,139.2 C172.693333,148.16 181.333333,160.213333 181.333333,176 L181.333333,202.666667 L245.333333,202.666667 L245.333333,176 C245.333333,151.146667 195.52,138.666667 170.666667,138.666667 Z" id="Shape"></path>
        </g>
    </g>
</svg>