<?xml version="1.0" encoding="UTF-8"?>
<svg width="256px" height="256px" viewBox="0 0 256 256" version="1.1" xmlns="http://www.w3.org/2000/svg" xmlns:xlink="http://www.w3.org/1999/xlink">
    <defs></defs>
    <g id="Assets" stroke="none" stroke-width="1" fill="none" fill-rule="evenodd">
        <g id="Search" fill-rule="nonzero" fill="#FFFFFF">
            <path d="M165.333333,149.333333 L156.906667,149.333333 L153.92,146.453333 C164.373333,134.293333 170.666667,118.506667 170.666667,101.333333 C170.666667,63.04 139.626667,32 101.333333,32 C63.04,32 32,63.04 32,101.333333 C32,139.626667 63.04,170.666667 101.333333,170.666667 C118.506667,170.666667 134.293333,164.373333 146.453333,153.92 L149.333333,156.906667 L149.333333,165.333333 L202.666667,218.56 L218.56,202.666667 L165.333333,149.333333 L165.333333,149.333333 Z M101.333333,149.333333 C74.7733333,149.333333 53.3333333,127.893333 53.3333333,101.333333 C53.3333333,74.7733333 74.7733333,53.3333333 101.333333,53.3333333 C127.893333,53.3333333 149.333333,74.7733333 149.333333,101.333333 C149.333333,127.893333 127.893333,149.333333 101.333333,149.333333 Z" id="Shape"></path>
        </g>
    </g>
</svg>