<?xml version="1.0" encoding="UTF-8"?>
<svg width="256px" height="256px" viewBox="0 0 256 256" version="1.1" xmlns="http://www.w3.org/2000/svg" xmlns:xlink="http://www.w3.org/1999/xlink">
    <defs></defs>
    <g id="Assets" stroke="none" stroke-width="1" fill="none" fill-rule="evenodd">
        <g id="Linux" fill-rule="nonzero" fill="#FFFFFF">
            <path d="M113.306379,58.4943191 C112.262849,58.5891855 111.527634,59.0872341 111.100735,59.988465 C110.673837,60.8896958 110.270654,61.3403112 109.891189,61.3403112 C109.416857,61.4351776 109.179691,61.1980116 109.179691,60.6288132 C109.179691,59.4904164 110.080922,58.7789183 111.883383,58.4943191 L113.306379,58.4943191 Z M125.686445,60.4865136 C125.30698,60.58138 124.761498,60.2730642 124.05,59.5615662 C123.338502,58.8500681 122.508421,58.6366187 121.559757,58.9212179 C123.83655,57.8776875 125.354413,57.9725539 126.113344,59.2058171 C126.397943,59.7750156 126.255644,60.2019144 125.686445,60.4865136 Z M75.7392831,121.248446 C75.3598175,121.153579 75.0752183,121.295879 74.8854855,121.675345 C74.6957527,122.05481 74.4823032,122.647725 74.2451372,123.45409 C74.0079712,124.260454 73.7470886,124.900802 73.4624894,125.375134 C73.1778902,125.849466 72.7035582,126.466098 72.0394933,127.225029 C71.0908293,128.26856 71.0433961,128.837758 71.8971937,128.932625 C72.2766593,129.027491 72.8695744,128.695459 73.6759388,127.936527 C74.4823032,127.177596 75.0752183,126.323798 75.4546839,125.375134 C75.5495503,125.090535 75.6444167,124.758503 75.7392831,124.379037 C75.8341495,123.999572 75.9290159,123.714972 76.0238823,123.52524 C76.1187487,123.335507 76.1898985,123.122057 76.2373317,122.884891 C76.2847649,122.647725 76.3084815,122.457992 76.3084815,122.315693 L76.3084815,121.888794 L76.1661819,121.533045 L75.7392831,121.248446 Z M197.405447,172.334005 C197.405447,170.626409 194.796621,168.634215 189.578969,166.357421 C189.958434,164.934425 190.314183,163.630012 190.646216,162.444182 C190.978248,161.258352 191.215414,160.025089 191.357714,158.744392 C191.500013,157.463696 191.642313,156.443882 191.784613,155.684951 C191.926912,154.926019 191.950629,153.858772 191.855762,152.48321 C191.760896,151.107647 191.713463,150.182699 191.713463,149.708367 C191.713463,149.234035 191.547447,148.190505 191.215414,146.577776 C190.883382,144.965047 190.693649,143.992666 190.646216,143.660634 C190.598783,143.328601 190.361617,142.142771 189.934718,140.103144 C189.507819,138.063516 189.246936,136.806536 189.15207,136.332204 C188.203406,131.778617 185.974045,126.892997 182.463988,121.675345 C178.953931,116.457692 175.538741,112.900202 172.218417,111.002874 C174.49521,112.900202 177.198903,116.837158 180.329494,122.813741 C188.582871,138.182099 191.144264,151.368529 188.013673,162.373032 C186.970143,166.167688 184.598482,168.159883 180.898693,168.349616 C177.957834,168.729081 176.131656,167.851567 175.420158,165.717073 C174.70866,163.582579 174.329194,159.621906 174.281761,153.835056 C174.234328,148.048205 173.688846,142.972852 172.645315,138.608998 C171.791518,134.909208 170.86657,131.636317 169.870473,128.790325 C168.874376,125.944333 167.949428,123.786122 167.095631,122.315693 C166.241833,120.845264 165.506619,119.68315 164.889987,118.829352 C164.273355,117.975555 163.656724,117.264057 163.040092,116.694858 C162.42346,116.12566 162.067711,115.793628 161.972845,115.698761 C160.644715,109.817044 159.174286,104.931424 157.561557,101.041902 C155.948828,97.152379 154.549549,94.4961197 153.363719,93.0731236 C152.177889,91.6501275 151.063208,90.0848319 150.019678,88.3772366 C148.976148,86.6696413 148.264649,84.7723132 147.885184,82.6852523 C147.505718,80.6930578 147.790317,78.1553815 148.738982,75.0722233 C149.687646,71.9890652 149.901095,69.6411217 149.37933,68.0283928 C148.857565,66.4156639 146.746787,65.2298338 143.046997,64.4709026 C141.624001,64.1863034 139.513224,63.3325057 136.714665,61.9095097 C133.916106,60.4865136 132.232227,59.7275824 131.663029,59.632716 C130.904097,59.5378496 130.382332,58.3045863 130.097733,55.9329262 C129.813134,53.5612661 130.192599,51.1421727 131.23613,48.6756462 C132.27966,46.2091197 133.987256,44.9284232 136.358916,44.8335568 C139.868973,44.5489576 142.288066,45.9719537 143.616196,49.102545 C144.944325,52.2331364 145.134058,54.9842621 144.185394,57.3559222 C143.141864,59.1583839 143.046997,60.4153638 143.900795,61.1268618 C144.754593,61.8383599 146.177589,61.8620765 148.169783,61.1980116 C149.403046,60.818546 150.019678,59.1109507 150.019678,56.0752258 L150.019678,50.8101403 C149.545346,47.9641482 148.904998,45.5924881 148.098633,43.69516 C147.292269,41.7978319 146.296172,40.3511192 145.110342,39.355022 C143.924511,38.3589247 142.809831,37.6474267 141.766301,37.2205279 C140.72277,36.793629 139.442074,36.43788 137.924211,36.1532808 C127.773506,36.912212 123.551951,43.2682612 125.259546,55.2214281 C125.259546,56.6444242 125.212113,57.3559222 125.117247,57.3559222 C124.263449,56.5021246 122.86417,56.004076 120.919408,55.8617764 C118.974647,55.7194768 117.409351,55.7431934 116.223521,55.9329262 C115.037691,56.122659 114.302477,55.885493 114.017877,55.2214281 C114.112744,49.8140431 113.353813,45.5450549 111.741084,42.4144635 C110.128355,39.2838722 107.993861,37.6711433 105.337601,37.5762769 C102.776208,37.4814105 100.807731,38.7858235 99.4321677,41.4895161 C98.0566048,44.1932086 97.273957,47.0154841 97.0842242,49.9563427 C96.9893578,51.3793388 97.155374,53.1343672 97.5822728,55.2214281 C98.0091716,57.308489 98.6258032,59.0872341 99.4321677,60.5576634 C100.238532,62.0280927 100.973747,62.6684409 101.637812,62.4787081 C102.586476,62.1941089 103.345407,61.5300441 103.914605,60.4865136 C104.294071,59.632716 103.962038,59.2532503 102.918508,59.3481167 C102.254443,59.3481167 101.519229,58.6603353 100.712864,57.2847724 C99.9064997,55.9092096 99.4558843,54.3201973 99.3610179,52.5177356 C99.2661515,50.4306747 99.6930503,48.6756462 100.641714,47.2526501 C101.590378,45.8296541 103.203107,45.1655892 105.479901,45.2604557 C107.09263,45.2604557 108.373326,46.2565529 109.32199,48.2487474 C110.270654,50.2409419 110.72127,52.0908368 110.673837,53.7984321 C110.626403,55.5060274 110.555254,56.5495578 110.460387,56.9290234 C108.373326,58.3520195 106.902897,59.7275824 106.049099,61.055712 C105.290168,62.1941089 103.985755,63.3087891 102.13586,64.3997528 C100.285965,65.4907164 99.3135847,66.0836315 99.2187183,66.1784979 C97.985455,67.5066275 97.2502404,68.787324 97.0130744,70.0205873 C96.7759083,71.2538505 97.1316574,72.1076482 98.0803214,72.5819802 C99.4084511,73.3409114 100.594281,74.2658589 101.637812,75.3568225 C102.681342,76.4477862 103.440273,77.349017 103.914605,78.0605151 C104.388937,78.7720131 105.266452,79.3886447 106.547148,79.91041 C107.827844,80.4321752 109.511723,80.740491 111.598784,80.8353574 C116.057505,81.0250902 120.895692,80.3135922 126.113344,78.7008633 C126.303077,78.6059969 127.39404,78.2739645 129.386235,77.7047661 C131.378429,77.1355676 133.014875,76.637519 134.295571,76.2106202 C135.576268,75.7837214 136.975547,75.1670897 138.49341,74.3607253 C140.011272,73.5543608 141.00737,72.7242798 141.481702,71.8704822 C142.335499,70.5423525 143.284163,70.1628869 144.327694,70.7320853 C144.802026,71.0166845 145.110342,71.4198667 145.252641,71.941632 C145.394941,72.4633972 145.252641,73.0325956 144.825742,73.6492273 C144.398843,74.2658589 143.616196,74.7164743 142.477799,75.0010735 C140.580471,75.5702719 137.900495,76.5900858 134.437871,78.0605151 C130.975247,79.5309443 128.817037,80.4558918 127.963239,80.8353574 C123.789117,82.6378191 120.468793,83.7287827 118.002266,84.1082484 C115.630606,84.5825804 111.883383,84.487714 106.760597,83.8236492 C105.811933,83.6339163 105.385035,83.7287827 105.479901,84.1082484 C105.574767,84.487714 106.381132,85.3889448 107.898994,86.8119409 C110.270654,88.9938682 113.448679,90.0373987 117.433068,89.9425323 C119.045797,89.8476658 120.753392,89.5156334 122.555854,88.946435 C124.358316,88.3772366 126.065911,87.7131717 127.67864,86.9542405 C129.291369,86.1953093 130.880381,85.3652282 132.445676,84.4639974 C134.010972,83.5627665 135.433968,82.7564021 136.714665,82.0449041 C137.995361,81.333406 139.157475,80.7642076 140.201005,80.3373088 C141.244536,79.91041 142.074617,79.791827 142.691248,79.9815598 C143.30788,80.1712926 143.711062,80.6930578 143.900795,81.5468554 C143.900795,81.7365882 143.853362,81.9500377 143.758495,82.1872037 C143.663629,82.4243697 143.473896,82.6615357 143.189297,82.8987017 C142.904698,83.1358677 142.620098,83.3493171 142.335499,83.5390499 C142.0509,83.7287827 141.647718,83.9659488 141.125953,84.250548 C140.604187,84.5351472 140.177288,84.7485966 139.845256,84.8908962 C139.513224,85.0331958 139.038892,85.2703618 138.42226,85.6023942 C137.805628,85.9344267 137.355013,86.1478761 137.070414,86.2427425 C134.414154,87.5708721 131.212413,89.657933 127.46519,92.5039252 C123.717967,95.3499173 120.563659,97.389545 118.002266,98.6228083 C115.440873,99.8560715 113.116647,99.9035047 111.029586,98.7651079 C109.037391,97.7215774 106.049099,94.2589537 102.06471,88.3772366 C99.9776495,85.436378 98.7918194,84.3928476 98.5072202,85.2466452 C98.4123538,85.5312444 98.3649206,86.0055765 98.3649206,86.6696413 C98.3649206,89.0413014 97.6534226,91.7212773 96.2304265,94.7095691 C94.8074304,97.6978608 93.408151,100.330404 92.0325881,102.607197 C90.6570252,104.883991 89.660928,107.635117 89.0442964,110.860574 C88.4276647,114.086032 88.9731466,117.074324 90.6807418,119.82545 C88.4988145,120.394648 85.5342394,124.663636 81.7870164,132.632414 C78.0397934,140.601192 75.7867163,147.289274 75.0277851,152.696659 C74.8380523,154.404254 74.7669025,157.677145 74.8143357,162.515332 C74.8617689,167.353518 74.6008862,170.152077 74.0316878,170.911009 C73.2727566,173.187802 71.8971937,173.330102 69.9049992,171.337907 C66.8692743,168.397049 65.161679,163.938328 64.7822134,157.961744 C64.5924806,155.305485 64.7822134,152.649226 65.3514118,149.992966 C65.7308774,148.190505 65.6834442,147.336707 65.2091122,147.431573 C65.0193794,147.52644 64.8296466,147.763606 64.6399138,148.143072 C61.2247232,154.309388 61.6990552,162.183299 66.0629098,171.764806 C66.5372419,172.903203 67.7230719,174.231333 69.6204,175.749195 C71.5177281,177.267058 72.656125,178.215722 73.0355906,178.595187 C74.9329187,180.777115 79.8659717,185.06982 87.8347497,191.473302 C95.8035277,197.876784 100.214816,201.505424 101.068613,202.359222 C102.586476,203.782218 103.416557,205.58468 103.558856,207.766607 C103.701156,209.948534 103.037091,211.988162 101.566662,213.88549 C100.096233,215.782818 97.9380218,216.873782 95.0920297,217.158381 C95.8509609,218.581377 97.2265238,220.692155 99.2187183,223.490713 C101.210913,226.289272 102.539042,228.850665 103.203107,231.174892 C103.867172,233.499119 104.199205,236.84316 104.199205,241.207015 C108.563059,238.930221 108.895092,234.566366 105.195302,228.115451 C104.815836,227.356519 104.317788,226.597588 103.701156,225.838657 C103.084524,225.079726 102.633909,224.510527 102.34931,224.131062 C102.06471,223.751596 101.969844,223.466997 102.06471,223.277264 C102.34931,222.802932 102.965941,222.352317 103.914605,221.925418 C104.863269,221.498519 105.811933,221.617102 106.760597,222.281167 C111.124452,227.21422 118.998364,228.921815 130.382332,227.403953 C142.999564,225.980957 151.395241,221.854268 155.569363,215.023887 C157.75129,211.418963 159.364019,209.995967 160.407549,210.754899 C161.545946,211.324097 162.020278,213.790624 161.830545,218.154478 C161.735679,220.526138 160.644715,224.889993 158.557654,231.246042 C157.703857,233.427969 157.419258,235.206714 157.703857,236.582277 C157.988456,237.95784 159.126853,238.693055 161.119047,238.787921 C161.403647,236.98546 162.091428,233.333103 163.182392,227.830851 C164.273355,222.3286 164.913704,218.059612 165.103436,215.023887 C165.293169,213.031692 164.984853,209.545352 164.178489,204.564866 C163.372124,199.584379 163.016375,194.983359 163.111242,190.761804 C163.206108,186.540249 164.297072,183.196208 166.384133,180.729682 C167.807129,179.022086 170.226222,178.168289 173.641413,178.168289 C173.736279,174.658232 175.372725,172.144272 178.550749,170.626409 C181.728774,169.108547 185.167681,168.610498 188.867471,169.132264 C192.56726,169.654029 195.413253,170.721276 197.405447,172.334005 Z M108.041294,54.6522297 C108.325893,53.0395008 108.20731,51.6165048 107.685545,50.3832415 C107.16378,49.1499782 106.618298,48.4384802 106.049099,48.2487474 C105.195302,48.0590146 104.768403,48.391047 104.768403,49.2448446 C104.958136,49.7191767 105.195302,50.0037759 105.479901,50.0986423 C106.428565,50.0986423 106.760597,50.8101403 106.475998,52.2331364 C106.191399,54.1304645 106.570865,55.0791285 107.614395,55.0791285 C107.898994,55.0791285 108.041294,54.9368289 108.041294,54.6522297 Z M167.664829,82.6852523 C167.475096,81.9263211 167.166781,81.3808392 166.739882,81.0488068 C166.312983,80.7167744 165.696351,80.4796084 164.889987,80.3373088 C164.083622,80.1950092 163.395841,79.9341266 162.826643,79.5546609 C162.352311,79.2700617 161.901695,78.8905961 161.474796,78.4162641 C161.047898,77.9419321 160.715865,77.5624664 160.478699,77.2778672 C160.241533,76.993268 159.98065,76.6849522 159.696051,76.3529198 C159.411452,76.0208874 159.221719,75.8311546 159.126853,75.7837214 C159.031986,75.7362882 158.842254,75.807438 158.557654,75.9971708 C157.229525,77.5150332 157.561557,79.5783775 159.553752,82.1872037 C161.545946,84.7960298 163.395841,86.2901757 165.103436,86.6696413 C165.957234,86.7645077 166.645015,86.3850421 167.166781,85.5312444 C167.688546,84.6774468 167.854562,83.7287827 167.664829,82.6852523 Z M142.335499,52.375436 C142.335499,51.3319056 142.098333,50.4069581 141.624001,49.6005937 C141.149669,48.7942292 140.627904,48.2013142 140.058705,47.8218486 C139.489507,47.442383 139.062608,47.3000834 138.778009,47.3949498 C138.208811,47.3949498 137.829345,47.4898162 137.639612,47.679549 C137.449879,47.8692818 137.449879,48.0590146 137.639612,48.2487474 C137.829345,48.4384802 138.066511,48.5807798 138.35111,48.6756462 C139.67924,49.0551118 140.533037,50.5255411 140.912503,53.086934 C140.912503,53.3715333 141.291969,53.2766668 142.0509,52.8023348 C142.240633,52.612602 142.335499,52.4703024 142.335499,52.375436 Z M150.019678,19.2196276 C150.019678,19.0298948 149.901095,18.7927287 149.663929,18.5081295 C149.426763,18.2235303 148.999864,17.8914979 148.383232,17.5120323 C147.766601,17.1325667 147.315985,16.8479675 147.031386,16.6582346 C145.60839,15.2352386 144.469993,14.5237405 143.616196,14.5237405 C142.762398,14.6186069 142.216916,14.974356 141.97975,15.5909876 C141.742584,16.2076192 141.695151,16.8242508 141.837451,17.4408825 C141.97975,18.0575141 141.956034,18.6504291 141.766301,19.2196276 C141.671434,19.5990932 141.386835,20.0971418 140.912503,20.7137734 C140.438171,21.3304051 140.153572,21.7573039 140.058705,21.9944699 C139.963839,22.2316359 140.106139,22.6348181 140.485604,23.2040166 C140.86507,23.4886158 141.244536,23.4886158 141.624001,23.2040166 C142.003467,22.9194173 142.525232,22.4925185 143.189297,21.9233201 C143.853362,21.3541217 144.56486,20.9272229 145.323791,20.6426236 C145.418657,20.5477572 145.845556,20.500324 146.604487,20.500324 C147.363419,20.500324 148.074917,20.4054576 148.738982,20.2157248 C149.403046,20.025992 149.829945,19.6939596 150.019678,19.2196276 Z M230.418956,210.043401 C232.316284,211.181797 233.786713,212.343911 234.830244,213.529741 C235.873774,214.715571 236.442973,215.853968 236.537839,216.944932 C236.632705,218.035895 236.514122,219.103142 236.18209,220.146673 C235.850058,221.190203 235.114843,222.233734 233.976446,223.277264 C232.838049,224.320794 231.723369,225.245742 230.632405,226.052106 C229.541442,226.858471 228.118446,227.735985 226.363417,228.684649 C224.608389,229.633313 223.114243,230.415961 221.88098,231.032593 C220.647716,231.649224 219.129854,232.384439 217.327392,233.238237 C215.52493,234.092034 214.244234,234.708666 213.485303,235.088131 C209.880379,236.890593 205.824841,239.546852 201.318686,243.056909 C196.812532,246.566966 193.231325,249.602691 190.575066,252.164084 C188.962337,253.681947 185.736879,254.606894 180.898693,254.938927 C176.060506,255.270959 171.838951,254.583178 168.234028,252.875582 C166.526432,252.021785 165.127153,250.907104 164.036189,249.531542 C162.945226,248.155979 162.162578,246.946432 161.688246,245.902902 C161.213914,244.859371 160.170383,243.934424 158.557654,243.128059 C156.944926,242.321695 154.715565,241.871079 151.869573,241.776213 C147.695451,241.681347 141.529135,241.633913 133.370624,241.633913 C131.568162,241.633913 128.86447,241.705063 125.259546,241.847363 C121.654623,241.989662 118.903497,242.108245 117.006169,242.203112 C112.832047,242.297978 109.061108,243.009476 105.69335,244.337606 C102.325593,245.665736 99.7879167,247.088732 98.0803214,248.606594 C96.3727261,250.124457 94.3093818,251.476303 91.8902885,252.662133 C89.4711952,253.847963 86.9335189,254.393445 84.2772595,254.298578 C81.5261338,254.203712 76.2610483,252.733283 68.4820031,249.887291 C60.702958,247.041298 53.7777104,245.001671 47.7062605,243.768407 C45.9037988,243.388942 43.4847055,242.938326 40.4489806,242.416561 C37.4132556,241.894796 35.0415955,241.467897 33.3340002,241.135865 C31.6264049,240.803832 29.7527934,240.353217 27.7131657,239.784018 C25.673538,239.21482 24.0845258,238.527039 22.9461289,237.720674 C21.807732,236.91431 21.0013676,235.989362 20.5270356,234.945832 C19.5783715,232.763904 19.910404,229.609597 21.5231328,225.482908 C23.1358617,221.356219 23.9896594,218.77111 24.0845258,217.727579 C24.1793922,216.209717 23.9896594,214.312389 23.5153273,212.035595 C23.0409953,209.758801 22.5666633,207.74289 22.0923313,205.987862 C21.6179992,204.232833 21.4045498,202.501521 21.451983,200.793926 C21.4994162,199.086331 21.9974649,197.805634 22.9461289,196.951837 C24.2742586,195.81344 26.9779511,195.149375 31.0572065,194.959642 C35.1364619,194.769909 37.982454,194.200711 39.5951829,193.252047 C42.4411751,191.544452 44.4333696,189.88429 45.5717664,188.271561 C46.7101633,186.658832 47.2793617,184.239739 47.2793617,181.014281 C49.2715562,187.939528 47.7536937,192.967448 42.7257743,196.098039 C39.6900493,197.995367 35.7530935,198.706865 30.9149069,198.232533 C27.6894491,197.947934 25.6498214,198.422266 24.7960238,199.655529 C23.5627605,201.078525 23.7999265,203.782218 25.5075218,207.766607 C25.6972546,208.335805 26.0767203,209.189603 26.6459187,210.328 C27.2151171,211.466397 27.6182993,212.320194 27.8554653,212.889393 C28.0926314,213.458591 28.3060808,214.264956 28.4958136,215.308486 C28.6855464,216.352016 28.7329796,217.395547 28.6381132,218.439077 C28.6381132,219.862073 27.8317487,222.1863 26.2190199,225.411758 C24.606291,228.637216 23.9422261,230.91401 24.2268254,232.242139 C24.5114246,233.854868 26.2664531,235.088131 29.4919108,235.941929 C31.3892389,236.511127 35.3973445,237.388642 41.5162276,238.574472 C47.6351107,239.760302 52.3547144,240.732682 55.6750385,241.491614 C57.9518322,242.060812 61.4618892,243.104343 66.2052094,244.622205 C70.9485297,246.140068 74.8617689,247.231031 77.944927,247.895096 C81.0280852,248.559161 83.6606279,248.748894 85.8425552,248.464294 C89.9218106,247.895096 92.9812522,246.566966 95.0208799,244.479905 C97.0605076,242.392845 98.1514712,240.116051 98.2937708,237.649524 C98.4360704,235.182998 98.0803214,232.408155 97.2265238,229.324997 C96.3727261,226.241839 95.4714953,223.775313 94.5228312,221.925418 C93.5741672,220.075523 92.6255031,218.344211 91.6768391,216.731482 C80.1980041,198.706865 72.1817929,187.22803 67.6282055,182.294977 C61.17729,175.274863 55.8173381,173.377535 51.5483499,176.602993 C50.5048195,177.456791 49.7933214,176.745293 49.4138558,174.468499 C49.1292566,172.950636 49.0343902,171.148175 49.1292566,169.061114 C49.224123,166.309988 49.698455,163.843461 50.5522527,161.661534 C51.4060503,159.479607 52.5444472,157.250246 53.9674432,154.973453 C55.3904393,152.696659 56.4339698,150.704464 57.0980346,148.996869 C57.8569658,147.004675 59.1139457,143.589484 60.8689742,138.751297 C62.6240027,133.913111 64.0232821,130.213321 65.0668126,127.651928 C66.110343,125.090535 67.5333391,122.19711 69.3358008,118.971652 C71.1382625,115.746194 72.9881574,113.184801 74.8854855,111.287473 C85.32079,97.7215774 91.2025071,88.472103 92.5306367,83.5390499 C91.3922399,72.9140126 90.6333086,58.2097199 90.253843,39.4261718 C90.0641102,30.8881953 91.2025071,23.7020652 93.6690336,17.8677813 C96.1355601,12.0334974 101.16348,7.07672777 108.752792,2.99747237 C112.452582,1.00527787 117.385635,0.00918061981 123.551951,0.00918061981 C128.579871,-0.0856857849 133.60779,0.554662447 138.635709,1.93022531 C143.663629,3.30578818 147.885184,5.27426608 151.300374,7.83565901 C156.707759,11.820048 161.047898,17.5831821 164.320788,25.1250613 C167.593679,32.6669404 168.992959,39.6633378 168.518627,46.1142533 C168.044295,55.1265617 169.467291,65.277267 172.787615,76.5663692 C176.013073,87.2862729 182.321689,97.626711 191.713463,107.587684 C196.931115,113.184801 201.650719,120.916413 205.872274,130.782519 C210.093829,140.648626 212.916104,149.708367 214.3391,157.961744 C215.098032,162.610198 215.335198,166.618304 215.050598,169.986061 C214.765999,173.353819 214.196801,175.986361 213.343003,177.883689 C212.489205,179.781017 211.540541,180.824548 210.497011,181.014281 C209.548347,181.204014 208.433667,182.105244 207.15297,183.717973 C205.872274,185.330702 204.591577,187.014581 203.310881,188.769609 C202.030184,190.524638 200.10914,192.11365 197.547747,193.536646 C194.986354,194.959642 192.092928,195.623707 188.867471,195.528841 C187.159875,195.433974 185.66573,195.196808 184.385033,194.817343 C183.104337,194.437877 182.03709,193.797529 181.183292,192.896298 C180.329494,191.995067 179.689146,191.259852 179.262247,190.690654 C178.835348,190.121456 178.289867,189.149075 177.625802,187.773512 C176.961737,186.397949 176.534838,185.473002 176.345105,184.99867 C174.258044,181.488613 172.313283,180.065617 170.510821,180.729682 C168.70836,181.393746 167.38023,183.717973 166.526432,187.702362 C165.672635,191.686751 166.004667,196.287772 167.52253,201.505424 C169.419858,208.146072 169.467291,217.395547 167.664829,229.253848 C166.716165,235.420164 167.569963,240.187201 170.226222,243.554958 C172.882481,246.922715 176.345105,248.488011 180.614093,248.250845 C184.883082,248.013679 188.914904,246.3298 192.70956,243.199209 C198.306678,238.550755 202.55195,235.396447 205.445375,233.736285 C208.3388,232.076123 213.248137,230.060212 220.173384,227.688552 C225.201304,225.980957 228.85366,224.249645 231.130454,222.494616 C233.407248,220.739588 234.284762,219.103142 233.762997,217.58528 C233.241231,216.067417 232.055401,214.715571 230.205507,213.529741 C228.355612,212.343911 225.912802,211.229231 222.877077,210.1857 C219.746485,209.14217 217.398542,206.865376 215.833246,203.355319 C214.267951,199.845262 213.556452,196.406355 213.698752,193.038598 C213.841052,189.67084 214.576266,187.417763 215.904396,186.279366 C215.999262,189.220225 216.378728,191.900201 217.042793,194.319294 C217.706858,196.738387 218.394639,198.659432 219.106137,200.082428 C219.817635,201.505424 220.790016,202.85727 222.023279,204.137967 C223.256542,205.418663 224.25264,206.319894 225.011571,206.841659 C225.770502,207.363425 226.790316,207.980056 228.071012,208.691554 C229.351709,209.403052 230.134357,209.853668 230.418956,210.043401 Z" id="Shape"></path>
        </g>
    </g>
</svg>