<?xml version="1.0" encoding="UTF-8"?>
<svg width="256px" height="256px" viewBox="0 0 256 256" version="1.1" xmlns="http://www.w3.org/2000/svg" xmlns:xlink="http://www.w3.org/1999/xlink">
    <defs></defs>
    <g id="Assets" stroke="none" stroke-width="1" fill="none" fill-rule="evenodd">
        <g id="macOS" fill-rule="nonzero" fill="#FFFFFF">
            <path d="M228,174.571429 C224.285714,186.47619 218.428571,198.380952 210.428571,210.285714 C198.142857,228.952381 185.904762,238.285714 173.714286,238.285714 C169.047619,238.285714 162.380952,236.761905 153.714286,233.714286 C145.52381,230.666667 138.333333,229.142857 132.142857,229.142857 C126.333333,229.142857 119.571429,230.714286 111.857143,233.857143 C104.142857,237.095238 97.8571429,238.714286 93,238.714286 C78.5238095,238.714286 64.1904762,226.380952 50,201.714286 C36,176.857143 29,152.904762 29,129.857143 C29,108.142857 34.3809524,90.3333333 45.1428571,76.4285714 C55.9047619,62.7142857 69.4285714,55.8571429 85.7142857,55.8571429 C92.5714286,55.8571429 101,57.2857143 111,60.1428571 C120.904762,63 127.47619,64.4285714 130.714286,64.4285714 C135,64.4285714 141.809524,62.8095238 151.142857,59.5714286 C160.857143,56.3333333 169.095238,54.7142857 175.857143,54.7142857 C187.190476,54.7142857 197.333333,57.8095238 206.285714,64 C211.238095,67.4285714 216.190476,72.1904762 221.142857,78.2857143 C213.619048,84.6666667 208.190476,90.2857143 204.857143,95.1428571 C198.666667,104.095238 195.571429,113.952381 195.571429,124.714286 C195.571429,136.52381 198.857143,147.142857 205.428571,156.571429 C212,166 219.52381,172 228,174.571429 Z M174.285714,7 C174.285714,12.8095238 172.904762,19.2857143 170.142857,26.4285714 C167.285714,33.5714286 162.857143,40.1428571 156.857143,46.1428571 C151.714286,51.2857143 146.571429,54.7142857 141.428571,56.4285714 C137.904762,57.4761905 132.952381,58.2857143 126.571429,58.8571429 C126.857143,44.6666667 130.571429,32.4285714 137.714286,22.1428571 C144.761905,11.952381 156.666667,4.9047619 173.428571,1 C173.52381,1.28571429 173.642857,1.80952381 173.785714,2.57142857 C173.928571,3.33333333 174.047619,3.85714286 174.142857,4.14285714 C174.142857,4.52380952 174.166667,5 174.214286,5.57142857 C174.261905,6.14285714 174.285714,6.61904762 174.285714,7 Z" id="Shape"></path>
        </g>
    </g>
</svg>