<?xml version="1.0" encoding="UTF-8"?>
<svg width="256px" height="256px" viewBox="0 0 256 256" version="1.1" xmlns="http://www.w3.org/2000/svg" xmlns:xlink="http://www.w3.org/1999/xlink">
    <defs></defs>
    <g id="Assets" stroke="none" stroke-width="1" fill="none" fill-rule="evenodd">
        <g id="Tizen" fill-rule="nonzero" fill="#FFFFFF">
            <path d="M236.576189,127.288097 C236.576189,187.646248 187.646242,236.576195 127.288078,236.576195 C66.92995,236.576195 18,187.646248 18,127.288097 C18,66.9299471 66.92995,18 127.288078,18 C187.646242,18 236.576189,66.9299471 236.576189,127.288097 L236.576189,127.288097 Z M125.892081,55.000326 C125.697711,54.9960569 125.51064,55.0336247 125.343634,55.1184511 C115.974187,60.87742 102.301009,68.8930608 99.0619829,78.7044845 C98.0490189,81.9534998 98.4970574,83.1558396 99.0496026,85.7747408 C99.9657015,88.9258665 101.879823,93.0570033 104.010642,96.48993 C105.390831,98.7135584 109.936703,104.581134 110.279466,104.581134 C116.575954,100.584647 123.316554,95.9652191 128.385562,90.9635814 L128.385562,74.1526355 C128.385562,59.9345558 128.236102,57.1262782 127.423694,55.9664156 C127.118072,55.3843285 126.475364,55.0094618 125.89238,55.000326 L125.892081,55.000326 Z M96.5898949,83.3069218 C96.2584446,83.3137523 95.7369355,84.5625822 95.4298189,86.0827113 C94.6332538,90.024596 91.0873676,104.062229 89.5111431,109.521125 C88.2314905,113.952842 87.7784146,118.711827 88.5197806,119.911391 C89.0692094,120.800424 98.3880255,124.17051 111.721898,128.302155 C118.192223,130.307037 119.21428,130.267164 120.517626,127.977322 C122.503169,124.488641 122.812121,125.094123 110.355071,108.082535 C100.522345,94.6547439 99.2176758,92.383985 97.880775,86.3780025 C97.5030054,84.6809634 96.9214305,83.2997071 96.5898949,83.3069218 L96.5898949,83.3069218 Z M164.546771,87.4242226 C164.078283,87.4148306 163.525653,87.4417257 162.94792,87.508622 C158.952885,87.9691688 144.509184,88.9322701 138.830429,89.1200663 C134.220137,89.2725147 129.550163,90.3139106 128.638333,91.3897195 C127.962668,92.1869249 127.637408,102.089237 127.828363,116.047204 C127.921045,122.820376 128.276786,123.779464 130.857351,124.311347 C134.788819,125.121701 134.309403,125.604404 146.638978,108.500221 C156.370997,94.9993429 158.125754,93.0574729 163.424604,89.9300789 C164.921893,89.0463823 166.056654,88.0663328 165.947366,87.7532822 C165.879103,87.5576309 165.327583,87.4407011 164.546771,87.4242226 Z M171.089755,88.6813771 C167.686711,88.7219332 166.681218,89.5193948 164.361194,90.8539091 C161.647392,92.698914 158.306933,95.7945418 155.700412,98.881845 C154.01221,100.881646 149.840436,107.018342 149.946351,107.344286 C155.692941,112.097634 162.167919,117.083306 168.491131,120.358576 L184.479509,115.16133 C198.001691,110.76765 200.624054,109.757802 201.476117,108.626713 C201.935255,108.156177 202.09479,107.429112 201.923302,106.871828 C201.866181,106.686038 201.773073,106.519289 201.640604,106.386692 C193.268236,99.255431 181.421919,88.7300018 171.089755,88.6813771 L171.089755,88.6813771 Z M55.2310942,109.845958 C54.9169336,109.845958 54.6749203,109.882245 54.4633027,109.947178 C53.8152584,110.05796 53.259981,110.555605 53.0711602,111.107211 C53.0081915,111.291165 52.982876,111.479004 53.0120764,111.664111 C55.5938794,122.354621 58.9911599,137.836431 67.3215199,143.948837 C70.0984619,145.916193 71.3802917,145.862617 74.04167,146.14668 C77.3216361,146.249181 81.8416806,145.703381 85.7650803,144.737632 C88.3063273,144.112129 95.2943614,141.604394 95.4002769,141.278451 C93.5450689,134.055106 91.2335404,126.214582 88.0430966,119.848124 L72.0547614,114.655061 C60.645423,110.947975 56.9274929,109.849075 55.2310942,109.845958 Z M167.942727,120.767766 C166.051616,120.760082 156.911034,123.438536 144.521265,127.652446 C138.108189,129.83364 137.307013,130.467383 137.598548,133.085985 C138.042787,137.07547 137.437348,136.765749 157.514424,143.206318 C173.361922,148.290093 175.750422,149.363208 180.362166,153.436367 C181.665298,154.587264 182.945762,155.362441 183.209718,155.161752 C183.473675,154.961106 183.162929,153.644441 182.517874,152.23407 C180.845296,148.576846 175.461577,135.13407 173.528117,129.791334 C171.958467,125.453749 169.530222,121.340461 168.225382,120.805718 C168.164932,120.780957 168.068793,120.76815 167.942727,120.767723 L167.942727,120.767766 Z M117.577264,136.827907 C115.240889,136.822357 110.64588,138.373608 98.7540125,142.286634 C82.944978,147.488747 80.381916,148.026222 74.2568309,147.441744 C72.5260662,147.276617 71.0324055,147.402896 70.9367784,147.720173 C70.841194,148.03762 71.8682032,148.919951 73.2190637,149.681851 C76.721875,151.65749 88.9744788,159.36674 93.6791176,162.552658 C97.4984802,165.139204 101.885244,167.042354 103.25523,166.707958 C104.2705,166.460139 110.354303,158.639547 118.404054,147.235079 C122.310292,141.70096 122.587952,140.715532 120.812917,138.768411 C119.714273,137.563254 119.175816,136.831749 117.577264,136.827907 Z M132.894891,141.674962 C132.414237,141.689477 131.913006,141.859001 131.312903,142.130599 C127.655936,143.785887 127.762235,143.11321 127.841042,164.197918 C127.903243,180.840744 127.623533,183.447008 125.174921,189.091653 C124.483033,190.686704 124.138947,192.142541 124.411313,192.331533 C124.683722,192.520567 125.842688,191.81997 126.984706,190.770677 C129.946033,188.04983 141.06251,178.774132 145.546353,175.284298 C149.186586,172.451132 152.351031,168.869301 152.456349,167.463113 C152.534387,166.420949 146.978283,158.216781 138.619495,147.036823 C135.577401,142.967934 134.33681,141.63082 132.894891,141.674962 L132.894891,141.674962 Z M159.678541,145.982108 C159.656769,145.986377 159.640973,145.988511 159.632136,145.994488 C156.887212,152.928689 154.148948,160.630981 152.987933,167.656843 L162.86779,181.25749 C171.224956,192.760104 172.999094,194.941511 174.338087,195.402357 C174.927432,195.693593 175.66662,195.619567 176.143646,195.284189 C176.302711,195.172511 176.4339,195.03351 176.51911,194.866589 C180.714108,184.700236 187.064984,170.179093 183.918469,160.337611 C182.828192,157.113655 181.757766,156.402941 179.771583,154.608823 C177.178339,152.597965 173.20307,150.383728 169.461405,148.858903 C167.113504,147.902078 160.350962,145.921316 159.678541,145.981809 L159.678541,145.982108 Z M114.366926,166.686869 C110.51435,166.705653 106.71232,166.916971 103.191963,167.450391 L93.3078796,181.051123 C84.9507133,192.55378 83.4229853,194.91483 83.3984382,196.330751 C83.3035369,196.981228 83.6028411,197.659711 84.0691939,198.009775 C84.2245879,198.126491 84.3988085,198.208073 84.5838298,198.237572 C95.5489685,199.085665 111.320179,200.63905 119.707613,194.605365 C122.43687,192.572222 122.783006,191.332571 123.875588,188.889171 C124.986655,185.801484 125.86382,181.334803 126.157831,177.305018 C126.348231,174.694826 126.118555,167.27647 125.84145,167.074927 C122.119892,166.84111 118.219545,166.66817 114.366926,166.686869 Z" id="Shape"></path>
        </g>
    </g>
</svg>