<?xml version="1.0" encoding="UTF-8"?>
<svg width="256px" height="256px" viewBox="0 0 256 256" version="1.1" xmlns="http://www.w3.org/2000/svg" xmlns:xlink="http://www.w3.org/1999/xlink">
    <defs></defs>
    <g id="Assets" stroke="none" stroke-width="1" fill="none" fill-rule="evenodd">
        <g id="Web" fill-rule="nonzero" fill="#FFFFFF">
            <path d="M128,18.2857143 C147.904762,18.2857143 166.261905,23.1904762 183.071429,33 C199.880952,42.8095238 213.190476,56.1190476 223,72.9285714 C232.809524,89.7380952 237.714286,108.095238 237.714286,128 C237.714286,147.904762 232.809524,166.261905 223,183.071429 C213.190476,199.880952 199.880952,213.190476 183.071429,223 C166.261905,232.809524 147.904762,237.714286 128,237.714286 C108.095238,237.714286 89.7380952,232.809524 72.9285714,223 C56.1190476,213.190476 42.8095238,199.880952 33,183.071429 C23.1904762,166.261905 18.2857143,147.904762 18.2857143,128 C18.2857143,108.095238 23.1904762,89.7380952 33,72.9285714 C42.8095238,56.1190476 56.1190476,42.8095238 72.9285714,33 C89.7380952,23.1904762 108.095238,18.2857143 128,18.2857143 Z M167.142857,92.7142857 C166.952381,92.8095238 166.5,93.2619048 165.785714,94.0714286 C165.071429,94.8809524 164.428571,95.3333333 163.857143,95.4285714 C164.047619,95.4285714 164.261905,95.1904762 164.5,94.7142857 C164.738095,94.2380952 164.97619,93.7142857 165.214286,93.1428571 C165.452381,92.5714286 165.619048,92.2380952 165.714286,92.1428571 C166.285714,91.4761905 167.333333,90.7619048 168.857143,90 C170.190476,89.4285714 172.666667,88.8571429 176.285714,88.2857143 C179.52381,87.5238095 181.952381,88.047619 183.571429,89.8571429 C183.380952,89.6666667 183.833333,89.047619 184.928571,88 C186.02381,86.952381 186.714286,86.3809524 187,86.2857143 C187.285714,86.0952381 188,85.8809524 189.142857,85.6428571 C190.285714,85.4047619 191,85.047619 191.285714,84.5714286 L191.571429,81.4285714 C190.428571,81.5238095 189.595238,81.1904762 189.071429,80.4285714 C188.547619,79.6666667 188.238095,78.6666667 188.142857,77.4285714 C188.142857,77.6190476 187.857143,78 187.285714,78.5714286 C187.285714,77.9047619 187.071429,77.5238095 186.642857,77.4285714 C186.214286,77.3333333 185.666667,77.3809524 185,77.5714286 C184.333333,77.7619048 183.904762,77.8095238 183.714286,77.7142857 C182.761905,77.4285714 182.047619,77.0714286 181.571429,76.6428571 C181.095238,76.2142857 180.714286,75.4285714 180.428571,74.2857143 C180.142857,73.1428571 179.952381,72.4285714 179.857143,72.1428571 C179.666667,71.6666667 179.214286,71.1428571 178.5,70.5714286 C177.785714,70 177.333333,69.5238095 177.142857,69.1428571 C177.047619,68.952381 176.928571,68.6904762 176.785714,68.3571429 C176.642857,68.0238095 176.5,67.7142857 176.357143,67.4285714 C176.214286,67.1428571 176.02381,66.8809524 175.785714,66.6428571 C175.547619,66.4047619 175.285714,66.2857143 175,66.2857143 C174.714286,66.2857143 174.380952,66.5238095 174,67 C173.619048,67.4761905 173.261905,67.952381 172.928571,68.4285714 C172.595238,68.9047619 172.380952,69.1428571 172.285714,69.1428571 C172,68.952381 171.714286,68.8809524 171.428571,68.9285714 C171.142857,68.9761905 170.928571,69.0238095 170.785714,69.0714286 C170.642857,69.1190476 170.428571,69.2619048 170.142857,69.5 C169.857143,69.7380952 169.619048,69.9047619 169.428571,70 C169.142857,70.1904762 168.738095,70.3333333 168.214286,70.4285714 C167.690476,70.5238095 167.285714,70.6190476 167,70.7142857 C168.428571,70.2380952 168.380952,69.7142857 166.857143,69.1428571 C165.904762,68.7619048 165.142857,68.6190476 164.571429,68.7142857 C165.428571,68.3333333 165.785714,67.7619048 165.642857,67 C165.5,66.2380952 165.095238,65.5714286 164.428571,65 L165.142857,65 C165.047619,64.6190476 164.642857,64.2142857 163.928571,63.7857143 C163.214286,63.3571429 162.380952,62.952381 161.428571,62.5714286 C160.47619,62.1904762 159.857143,61.9047619 159.571429,61.7142857 C158.809524,61.2380952 157.190476,60.7857143 154.714286,60.3571429 C152.238095,59.9285714 150.666667,59.9047619 150,60.2857143 C149.52381,60.8571429 149.309524,61.3571429 149.357143,61.7857143 C149.404762,62.2142857 149.595238,62.8809524 149.928571,63.7857143 C150.261905,64.6904762 150.428571,65.2857143 150.428571,65.5714286 C150.52381,66.1428571 150.261905,66.7619048 149.642857,67.4285714 C149.02381,68.0952381 148.714286,68.6666667 148.714286,69.1428571 C148.714286,69.8095238 149.380952,70.547619 150.714286,71.3571429 C152.047619,72.1666667 152.52381,73.1904762 152.142857,74.4285714 C151.857143,75.1904762 151.095238,75.952381 149.857143,76.7142857 C148.619048,77.4761905 147.857143,78.047619 147.571429,78.4285714 C147.095238,79.1904762 147.02381,80.0714286 147.357143,81.0714286 C147.690476,82.0714286 148.190476,82.8571429 148.857143,83.4285714 C149.047619,83.6190476 149.119048,83.8095238 149.071429,84 C149.02381,84.1904762 148.857143,84.4047619 148.571429,84.6428571 C148.285714,84.8809524 148.02381,85.0714286 147.785714,85.2142857 C147.547619,85.3571429 147.238095,85.5238095 146.857143,85.7142857 L146.428571,86 C145.380952,86.4761905 144.404762,86.1904762 143.5,85.1428571 C142.595238,84.0952381 141.952381,82.8571429 141.571429,81.4285714 C140.904762,79.047619 140.142857,77.6190476 139.285714,77.1428571 C137.095238,76.3809524 135.714286,76.4285714 135.142857,77.2857143 C134.666667,76.047619 132.714286,74.8095238 129.285714,73.5714286 C126.904762,72.7142857 124.142857,72.5238095 121,73 C121.571429,72.9047619 121.571429,72.1904762 121,70.8571429 C120.333333,69.4285714 119.428571,68.8571429 118.285714,69.1428571 C118.571429,68.5714286 118.761905,67.7380952 118.857143,66.6428571 C118.952381,65.547619 119,64.9047619 119,64.7142857 C119.285714,63.4761905 119.857143,62.3809524 120.714286,61.4285714 C120.809524,61.3333333 121.142857,60.9285714 121.714286,60.2142857 C122.285714,59.5 122.738095,58.8571429 123.071429,58.2857143 C123.404762,57.7142857 123.428571,57.4285714 123.142857,57.4285714 C126.47619,57.8095238 128.857143,57.2857143 130.285714,55.8571429 C130.761905,55.3809524 131.309524,54.5714286 131.928571,53.4285714 C132.547619,52.2857143 133.047619,51.4761905 133.428571,51 C134.285714,50.4285714 134.952381,50.1666667 135.428571,50.2142857 C135.904762,50.2619048 136.595238,50.5238095 137.5,51 C138.404762,51.4761905 139.095238,51.7142857 139.571429,51.7142857 C140.904762,51.8095238 141.642857,51.2857143 141.785714,50.1428571 C141.928571,49 141.571429,48.047619 140.714286,47.2857143 C141.857143,47.3809524 142,46.5714286 141.142857,44.8571429 C140.761905,44.1904762 140.380952,43.7619048 140,43.5714286 C138.857143,43.1904762 137.571429,43.4285714 136.142857,44.2857143 C135.380952,44.6666667 135.47619,45.047619 136.428571,45.4285714 C136.333333,45.3333333 135.880952,45.8333333 135.071429,46.9285714 C134.261905,48.0238095 133.47619,48.8571429 132.714286,49.4285714 C131.952381,50 131.190476,49.7619048 130.428571,48.7142857 C130.333333,48.6190476 130.071429,47.9761905 129.642857,46.7857143 C129.214286,45.5952381 128.761905,44.952381 128.285714,44.8571429 C127.52381,44.8571429 126.761905,45.5714286 126,47 C126.285714,46.2380952 125.761905,45.5238095 124.428571,44.8571429 C123.095238,44.1904762 121.952381,43.8095238 121,43.7142857 C122.809524,42.5714286 122.428571,41.2857143 119.857143,39.8571429 C119.190476,39.4761905 118.214286,39.2380952 116.928571,39.1428571 C115.642857,39.047619 114.714286,39.2380952 114.142857,39.7142857 C113.666667,40.3809524 113.404762,40.9285714 113.357143,41.3571429 C113.309524,41.7857143 113.547619,42.1666667 114.071429,42.5 C114.595238,42.8333333 115.095238,43.0952381 115.571429,43.2857143 C116.047619,43.4761905 116.595238,43.6666667 117.214286,43.8571429 C117.833333,44.047619 118.238095,44.1904762 118.428571,44.2857143 C119.761905,45.2380952 120.142857,45.9047619 119.571429,46.2857143 C119.380952,46.3809524 118.97619,46.547619 118.357143,46.7857143 C117.738095,47.0238095 117.190476,47.2380952 116.714286,47.4285714 C116.238095,47.6190476 115.952381,47.8095238 115.857143,48 C115.571429,48.3809524 115.571429,49.047619 115.857143,50 C116.142857,50.952381 116.047619,51.6190476 115.571429,52 C115.095238,51.5238095 114.666667,50.6904762 114.285714,49.5 C113.904762,48.3095238 113.571429,47.5238095 113.285714,47.1428571 C113.952381,48 112.761905,48.2857143 109.714286,48 L108.285714,47.8571429 C107.904762,47.8571429 107.142857,47.952381 106,48.1428571 C104.857143,48.3333333 103.880952,48.3809524 103.071429,48.2857143 C102.261905,48.1904762 101.619048,47.8095238 101.142857,47.1428571 C100.761905,46.3809524 100.761905,45.4285714 101.142857,44.2857143 C101.238095,43.9047619 101.428571,43.8095238 101.714286,44 C101.333333,43.7142857 100.809524,43.2619048 100.142857,42.6428571 C99.4761905,42.0238095 99,41.6190476 98.7142857,41.4285714 C94.3333333,42.8571429 89.8571429,44.8095238 85.2857143,47.2857143 C85.8571429,47.3809524 86.4285714,47.3333333 87,47.1428571 C87.4761905,46.952381 88.0952381,46.6428571 88.8571429,46.2142857 C89.6190476,45.7857143 90.0952381,45.5238095 90.2857143,45.4285714 C93.5238095,44.0952381 95.5238095,43.7619048 96.2857143,44.4285714 L97,43.7142857 C98.3333333,45.2380952 99.2857143,46.4285714 99.8571429,47.2857143 C99.1904762,46.9047619 97.7619048,46.8571429 95.5714286,47.1428571 C93.6666667,47.7142857 92.6190476,48.2857143 92.4285714,48.8571429 C93.0952381,50 93.3333333,50.8571429 93.1428571,51.4285714 C92.7619048,51.1428571 92.2142857,50.6666667 91.5,50 C90.7857143,49.3333333 90.0952381,48.8095238 89.4285714,48.4285714 C88.7619048,48.047619 88.047619,47.8095238 87.2857143,47.7142857 C85.7619048,47.7142857 84.7142857,47.7619048 84.1428571,47.8571429 C70.2380952,55.4761905 59.047619,66.047619 50.5714286,79.5714286 C51.2380952,80.2380952 51.8095238,80.6190476 52.2857143,80.7142857 C52.6666667,80.8095238 52.9047619,81.2380952 53,82 C53.0952381,82.7619048 53.2142857,83.2857143 53.3571429,83.5714286 C53.5,83.8571429 54.047619,83.7142857 55,83.1428571 C55.8571429,83.9047619 56,84.8095238 55.4285714,85.8571429 C55.5238095,85.7619048 57.6190476,87.047619 61.7142857,89.7142857 C63.5238095,91.3333333 64.5238095,92.3333333 64.7142857,92.7142857 C65,93.7619048 64.5238095,94.6190476 63.2857143,95.2857143 C63.1904762,95.0952381 62.7619048,94.6666667 62,94 C61.2380952,93.3333333 60.8095238,93.1428571 60.7142857,93.4285714 C60.4285714,93.9047619 60.452381,94.7857143 60.7857143,96.0714286 C61.1190476,97.3571429 61.6190476,97.952381 62.2857143,97.8571429 C61.6190476,97.8571429 61.1666667,98.6190476 60.9285714,100.142857 C60.6904762,101.666667 60.5714286,103.357143 60.5714286,105.214286 C60.5714286,107.071429 60.5238095,108.190476 60.4285714,108.571429 L60.7142857,108.714286 C60.4285714,109.857143 60.6904762,111.5 61.5,113.642857 C62.3095238,115.785714 63.3333333,116.714286 64.5714286,116.428571 C63.3333333,116.714286 64.2857143,118.761905 67.4285714,122.571429 C68,123.333333 68.3809524,123.761905 68.5714286,123.857143 C68.8571429,124.047619 69.4285714,124.404762 70.2857143,124.928571 C71.1428571,125.452381 71.8571429,125.928571 72.4285714,126.357143 C73,126.785714 73.4761905,127.285714 73.8571429,127.857143 C74.2380952,128.333333 74.7142857,129.404762 75.2857143,131.071429 C75.8571429,132.738095 76.5238095,133.857143 77.2857143,134.428571 C77.0952381,135 77.547619,135.952381 78.6428571,137.285714 C79.7380952,138.619048 80.2380952,139.714286 80.1428571,140.571429 C80.047619,140.571429 79.9285714,140.619048 79.7857143,140.714286 C79.6428571,140.809524 79.5238095,140.857143 79.4285714,140.857143 C79.7142857,141.52381 80.452381,142.190476 81.6428571,142.857143 C82.8333333,143.52381 83.5714286,144.142857 83.8571429,144.714286 C83.952381,145 84.047619,145.47619 84.1428571,146.142857 C84.2380952,146.809524 84.3809524,147.333333 84.5714286,147.714286 C84.7619048,148.095238 85.1428571,148.190476 85.7142857,148 C85.9047619,146.095238 84.7619048,143.142857 82.2857143,139.142857 C80.8571429,136.761905 80.047619,135.380952 79.8571429,135 C79.5714286,134.52381 79.3095238,133.785714 79.0714286,132.785714 C78.8333333,131.785714 78.6190476,131.095238 78.4285714,130.714286 C78.6190476,130.714286 78.9047619,130.785714 79.2857143,130.928571 C79.6666667,131.071429 80.0714286,131.238095 80.5,131.428571 C80.9285714,131.619048 81.2857143,131.809524 81.5714286,132 C81.8571429,132.190476 81.952381,132.333333 81.8571429,132.428571 C81.5714286,133.095238 81.6666667,133.928571 82.1428571,134.928571 C82.6190476,135.928571 83.1904762,136.809524 83.8571429,137.571429 C84.5238095,138.333333 85.3333333,139.238095 86.2857143,140.285714 C87.2380952,141.333333 87.8095238,141.952381 88,142.142857 C88.5714286,142.714286 89.2380952,143.642857 90,144.928571 C90.7619048,146.214286 90.7619048,146.857143 90,146.857143 C90.8571429,146.857143 91.8095238,147.357143 92.8571429,148.357143 C93.9047619,149.357143 94.7142857,150.285714 95.2857143,151.142857 C95.7619048,151.904762 96.1428571,153.142857 96.4285714,154.857143 C96.7142857,156.571429 96.952381,157.714286 97.1428571,158.285714 C97.3333333,158.952381 97.7380952,159.595238 98.3571429,160.214286 C98.9761905,160.833333 99.5714286,161.285714 100.142857,161.571429 L102.428571,162.714286 L104.285714,163.714286 C104.761905,163.904762 105.642857,164.404762 106.928571,165.214286 C108.214286,166.02381 109.238095,166.571429 110,166.857143 C110.952381,167.238095 111.714286,167.428571 112.285714,167.428571 C112.857143,167.428571 113.547619,167.309524 114.357143,167.071429 C115.166667,166.833333 115.809524,166.666667 116.285714,166.571429 C117.714286,166.380952 119.095238,167.095238 120.428571,168.714286 C121.761905,170.333333 122.761905,171.333333 123.428571,171.714286 C126.857143,173.52381 129.47619,174.047619 131.285714,173.285714 C131.095238,173.380952 131.119048,173.738095 131.357143,174.357143 C131.595238,174.97619 131.97619,175.714286 132.5,176.571429 C133.02381,177.428571 133.452381,178.119048 133.785714,178.642857 C134.119048,179.166667 134.380952,179.571429 134.571429,179.857143 C135.047619,180.428571 135.904762,181.142857 137.142857,182 C138.380952,182.857143 139.238095,183.571429 139.714286,184.142857 C140.285714,183.761905 140.619048,183.333333 140.714286,182.857143 C140.428571,183.619048 140.761905,184.571429 141.714286,185.714286 C142.666667,186.857143 143.52381,187.333333 144.285714,187.142857 C145.619048,186.857143 146.285714,185.333333 146.285714,182.571429 C143.333333,184 141,183.142857 139.285714,180 C139.285714,179.904762 139.166667,179.642857 138.928571,179.214286 C138.690476,178.785714 138.5,178.380952 138.357143,178 C138.214286,177.619048 138.095238,177.214286 138,176.785714 C137.904762,176.357143 137.904762,176 138,175.714286 C138.095238,175.428571 138.333333,175.285714 138.714286,175.285714 C139.571429,175.285714 140.047619,175.119048 140.142857,174.785714 C140.238095,174.452381 140.142857,173.857143 139.857143,173 C139.571429,172.142857 139.380952,171.52381 139.285714,171.142857 C139.190476,170.380952 138.666667,169.428571 137.714286,168.285714 C136.761905,167.142857 136.190476,166.428571 136,166.142857 C135.52381,167 134.761905,167.380952 133.714286,167.285714 C132.666667,167.190476 131.904762,166.761905 131.428571,166 C131.428571,166.095238 131.357143,166.357143 131.214286,166.785714 C131.071429,167.214286 131,167.52381 131,167.714286 C129.761905,167.714286 129.047619,167.666667 128.857143,167.571429 C128.952381,167.285714 129.071429,166.452381 129.214286,165.071429 C129.357143,163.690476 129.52381,162.619048 129.714286,161.857143 C129.809524,161.47619 130.071429,160.904762 130.5,160.142857 C130.928571,159.380952 131.285714,158.690476 131.571429,158.071429 C131.857143,157.452381 132.047619,156.857143 132.142857,156.285714 C132.238095,155.714286 132.02381,155.261905 131.5,154.928571 C130.97619,154.595238 130.142857,154.47619 129,154.571429 C127.190476,154.666667 125.952381,155.619048 125.285714,157.428571 C125.190476,157.714286 125.047619,158.214286 124.857143,158.928571 C124.666667,159.642857 124.428571,160.190476 124.142857,160.571429 C123.857143,160.952381 123.428571,161.285714 122.857143,161.571429 C122.190476,161.857143 121.047619,161.952381 119.428571,161.857143 C117.809524,161.761905 116.666667,161.52381 116,161.142857 C114.761905,160.380952 113.690476,159 112.785714,157 C111.880952,155 111.428571,153.238095 111.428571,151.714286 C111.428571,150.761905 111.547619,149.5 111.785714,147.928571 C112.02381,146.357143 112.166667,145.166667 112.214286,144.357143 C112.261905,143.547619 112,142.380952 111.428571,140.857143 C111.714286,140.666667 112.142857,140.214286 112.714286,139.5 C113.285714,138.785714 113.761905,138.285714 114.142857,138 C114.333333,137.904762 114.547619,137.833333 114.785714,137.785714 C115.02381,137.738095 115.238095,137.738095 115.428571,137.785714 C115.619048,137.833333 115.809524,137.761905 116,137.571429 C116.190476,137.380952 116.333333,137.095238 116.428571,136.714286 C116.333333,136.619048 116.142857,136.47619 115.857143,136.285714 C115.571429,136 115.380952,135.857143 115.285714,135.857143 C115.952381,136.142857 117.309524,136.071429 119.357143,135.642857 C121.404762,135.214286 122.714286,135.285714 123.285714,135.857143 C124.714286,136.904762 125.761905,136.809524 126.428571,135.571429 C126.428571,135.47619 126.309524,135.02381 126.071429,134.214286 C125.833333,133.404762 125.809524,132.761905 126,132.285714 C126.47619,134.857143 127.857143,135.285714 130.142857,133.571429 C130.428571,133.857143 131.166667,134.095238 132.357143,134.285714 C133.547619,134.47619 134.380952,134.714286 134.857143,135 C135.142857,135.190476 135.47619,135.452381 135.857143,135.785714 C136.238095,136.119048 136.5,136.333333 136.642857,136.428571 C136.785714,136.52381 137.02381,136.5 137.357143,136.357143 C137.690476,136.214286 138.095238,135.904762 138.571429,135.428571 C139.52381,136.761905 140.095238,137.904762 140.285714,138.857143 C141.333333,142.666667 142.238095,144.761905 143,145.142857 C143.666667,145.428571 144.190476,145.52381 144.571429,145.428571 C144.952381,145.333333 145.166667,144.880952 145.214286,144.071429 C145.261905,143.261905 145.261905,142.595238 145.214286,142.071429 C145.166667,141.547619 145.095238,140.952381 145,140.285714 L144.857143,139.142857 L144.857143,136.571429 L144.714286,135.428571 C143.285714,135.142857 142.404762,134.571429 142.071429,133.714286 C141.738095,132.857143 141.809524,131.97619 142.285714,131.071429 C142.761905,130.166667 143.47619,129.285714 144.428571,128.428571 C144.52381,128.333333 144.904762,128.166667 145.571429,127.928571 C146.238095,127.690476 146.97619,127.380952 147.785714,127 C148.595238,126.619048 149.190476,126.238095 149.571429,125.857143 C151.571429,124.047619 152.285714,122.380952 151.714286,120.857143 C152.380952,120.857143 152.904762,120.428571 153.285714,119.571429 C153.190476,119.571429 152.952381,119.428571 152.571429,119.142857 C152.190476,118.857143 151.833333,118.619048 151.5,118.428571 C151.166667,118.238095 150.952381,118.142857 150.857143,118.142857 C151.714286,117.666667 151.809524,116.904762 151.142857,115.857143 C151.619048,115.571429 151.97619,115.047619 152.214286,114.285714 C152.452381,113.52381 152.809524,113.047619 153.285714,112.857143 C154.142857,114 155.142857,114.095238 156.285714,113.142857 C157.047619,112.380952 157.095238,111.619048 156.428571,110.857143 C156.904762,110.190476 157.880952,109.690476 159.357143,109.357143 C160.833333,109.02381 161.714286,108.571429 162,108 C162.666667,108.190476 163.047619,108.095238 163.142857,107.714286 C163.238095,107.333333 163.285714,106.761905 163.285714,106 C163.285714,105.238095 163.428571,104.666667 163.714286,104.285714 C164.095238,103.809524 164.809524,103.380952 165.857143,103 C166.904762,102.619048 167.52381,102.380952 167.714286,102.285714 L170.142857,100.714286 C170.428571,100.333333 170.428571,100.142857 170.142857,100.142857 C171.857143,100.333333 173.333333,99.8095238 174.571429,98.5714286 C175.52381,97.5238095 175.238095,96.5714286 173.714286,95.7142857 C174,95.1428571 173.857143,94.6904762 173.285714,94.3571429 C172.714286,94.0238095 172,93.7619048 171.142857,93.5714286 C171.428571,93.4761905 171.97619,93.452381 172.785714,93.5 C173.595238,93.547619 174.095238,93.4761905 174.285714,93.2857143 C175.714286,92.3333333 175.380952,91.5714286 173.285714,91 C171.666667,90.5238095 169.619048,91.0952381 167.142857,92.7142857 Z M143.857143,218 C163.47619,214.571429 180.190476,205.571429 194,191 C193.714286,190.714286 193.119048,190.5 192.214286,190.357143 C191.309524,190.214286 190.714286,190.047619 190.428571,189.857143 C188.714286,189.190476 187.571429,188.809524 187,188.714286 C187.095238,188.047619 186.97619,187.428571 186.642857,186.857143 C186.309524,186.285714 185.928571,185.857143 185.5,185.571429 C185.071429,185.285714 184.47619,184.904762 183.714286,184.428571 C182.952381,183.952381 182.428571,183.619048 182.142857,183.428571 C181.952381,183.238095 181.619048,182.952381 181.142857,182.571429 C180.666667,182.190476 180.333333,181.928571 180.142857,181.785714 C179.952381,181.642857 179.595238,181.428571 179.071429,181.142857 C178.547619,180.857143 178.142857,180.761905 177.857143,180.857143 C177.571429,180.952381 177.095238,181 176.428571,181 L176,181.142857 C175.714286,181.238095 175.452381,181.357143 175.214286,181.5 C174.97619,181.642857 174.714286,181.785714 174.428571,181.928571 C174.142857,182.071429 173.952381,182.214286 173.857143,182.357143 C173.761905,182.5 173.761905,182.619048 173.857143,182.714286 C171.857143,181.095238 170.142857,180.047619 168.714286,179.571429 C168.238095,179.47619 167.714286,179.214286 167.142857,178.785714 C166.571429,178.357143 166.071429,178.02381 165.642857,177.785714 C165.214286,177.547619 164.738095,177.47619 164.214286,177.571429 C163.690476,177.666667 163.142857,178 162.571429,178.571429 C162.095238,179.047619 161.809524,179.761905 161.714286,180.714286 C161.619048,181.666667 161.52381,182.285714 161.428571,182.571429 C160.761905,182.095238 160.761905,181.261905 161.428571,180.071429 C162.095238,178.880952 162.190476,178 161.714286,177.428571 C161.428571,176.857143 160.928571,176.642857 160.214286,176.785714 C159.5,176.928571 158.928571,177.142857 158.5,177.428571 C158.071429,177.714286 157.52381,178.119048 156.857143,178.642857 C156.190476,179.166667 155.761905,179.47619 155.571429,179.571429 C155.380952,179.666667 154.97619,179.928571 154.357143,180.357143 C153.738095,180.785714 153.333333,181.142857 153.142857,181.428571 C152.857143,181.809524 152.571429,182.380952 152.285714,183.142857 C152,183.904762 151.761905,184.428571 151.571429,184.714286 C151.380952,184.333333 150.833333,184.02381 149.928571,183.785714 C149.02381,183.547619 148.571429,183.285714 148.571429,183 C148.761905,183.952381 148.952381,185.619048 149.142857,188 C149.333333,190.380952 149.571429,192.190476 149.857143,193.428571 C150.52381,196.380952 149.952381,198.666667 148.142857,200.285714 C145.571429,202.666667 144.190476,204.571429 144,206 C143.619048,208.095238 144.190476,209.333333 145.714286,209.714286 C145.714286,210.380952 145.333333,211.357143 144.571429,212.642857 C143.809524,213.928571 143.47619,214.952381 143.571429,215.714286 C143.571429,216.285714 143.666667,217.047619 143.857143,218 Z" id="Shape"></path>
        </g>
    </g>
</svg>