<?xml version="1.0" encoding="UTF-8"?>
<svg width="540px" height="460px" viewBox="0 0 540 460" version="1.1" xmlns="http://www.w3.org/2000/svg" xmlns:xlink="http://www.w3.org/1999/xlink">
    <defs></defs>
    <g id="Assets" stroke="none" stroke-width="1" fill="none" fill-rule="evenodd">
        <g id="Desktop">
            <g id="iMac" stroke="#6441A4" fill="#2C2541">
                <g transform="translate(13.000000, 12.000000)" id="S">
                    <path d="M200.911,354.699 C200.903,354.844 200.887,355.125 200.864,355.533 C200.825,356.215 200.779,357.006 200.726,357.896 C200.577,360.441 200.405,363.277 200.213,366.332 C199.666,375.057 199.073,383.782 198.454,391.925 C197.561,403.678 196.691,413.203 195.874,419.697 C195.239,424.74 194.615,427.935 194.213,428.474 C193.303,429.696 189.56,430.691 183.208,431.578 C181.857,431.766 177.158,432.363 176.274,432.486 C174.439,432.741 173.196,432.959 172.317,433.2 C170.746,433.632 169.867,434.225 170.483,435.463 C171.201,436.909 179.178,437.351 199.334,437.683 C213.695,437.919 231.927,438 259.523,438 C287.118,438 305.35,437.919 319.711,437.683 C339.866,437.351 347.843,436.91 348.562,435.463 C349.177,434.226 348.298,433.632 346.728,433.2 C345.848,432.959 344.605,432.741 342.77,432.486 C341.887,432.363 337.188,431.766 335.837,431.578 C329.484,430.691 325.742,429.696 324.831,428.474 C324.43,427.935 323.805,424.74 323.171,419.697 C322.354,413.203 321.483,403.677 320.591,391.925 C319.972,383.782 319.379,375.057 318.832,366.332 C318.641,363.277 318.469,360.441 318.319,357.896 C318.266,357.005 318.22,356.214 318.181,355.533 C318.158,355.125 318.142,354.844 318.133,354.699 L318.08,353.754 L317.135,353.754 L259.522,353.754 L201.908,353.754 L200.962,353.754 L200.911,354.699 Z" stroke-width="2"></path>
                    <path d="M15.996,0 C7.163,0 0,7.166 0,16 L0,328.99 L0,329.99 L1,329.99 L516,329.99 L517,329.99 L517,328.99 L517,16 C517,7.167 509.832,0 501.005,0 L15.996,0 Z" stroke-width="2"></path>
                    <path d="M0,330.973 L0,362.553 C0,371.383 7.168,378.545 15.996,378.545 L501.005,378.545 C509.835,378.545 517,371.379 517,362.553 L517,330.973 L517,329.973 L516,329.973 L1,329.973 L0,329.973 L0,330.973 Z" stroke-width="2"></path>
                    <rect stroke-width="2" stroke-linejoin="round" x="22.779" y="22.791" width="472.433" height="284.409"></rect>
                </g>
            </g>
            <g id="Glitch" transform="translate(216.000000, 120.000000)" fill="#FFFFFF">
                <path d="M7.59375,0 L0,19.3955224 L0,98.6641791 L27,98.6641791 L27,113 L42.1875,113 L56.53125,98.6641791 L78.46875,98.6641791 L108,69.1492537 L108,0 L7.59375,0 Z M97.875,64.0895522 L81,80.9552239 L54,80.9552239 L39.65625,95.2910448 L39.65625,80.9552239 L16.875,80.9552239 L16.875,10.119403 L97.875,10.119403 L97.875,64.0895522 Z M73.1138367,44.6312171 L83.3968975,34.3481563 L72.6577133,23.608972 L62.3746525,33.8920328 L52.0915917,23.608972 L41.3524074,34.3481563 L51.6354682,44.6312171 L41.3524074,54.9142778 L52.0915917,65.6534621 L62.3746525,55.3704013 L72.6577133,65.6534621 L83.3968975,54.9142778 L73.1138367,44.6312171 Z"></path>
            </g>
        </g>
    </g>
</svg>