<?xml version="1.0" encoding="UTF-8"?>
<svg width="330px" height="200px" viewBox="0 0 330 200" version="1.1" xmlns="http://www.w3.org/2000/svg" xmlns:xlink="http://www.w3.org/1999/xlink">
    <defs></defs>
    <g id="Assets" stroke="none" stroke-width="1" fill="none" fill-rule="evenodd">
        <g id="Laptop">
            <g id="MacBook" stroke="#6441A4" fill="#2C2541" stroke-linejoin="round">
                <g transform="translate(13.000000, 13.000000)" id="S">
                    <path d="M36.747,8.8817842e-16 C31.774,8.8817842e-16 27.744,4.027 27.744,8.999 L27.744,165.72 C27.744,167.377 29.087,168.723 30.74,168.723 L274.67,168.723 C276.326,168.723 277.666,167.377 277.666,165.72 L277.666,8.999 C277.666,4.027 273.64,0 268.663,0 L36.747,0 L36.747,8.8817842e-16 Z" stroke-width="2"></path>
                    <rect stroke-width="2" x="36.008" y="9.459" width="233.984" height="146.848"></rect>
                    <path d="M9.703,177.258 L296.297,177.258 C300.327,177.258 306,175.004 306,173.044 L306,172.044 L305,172.044 L1,172.044 L0,172.044 L0,173.044 C0,175.004 5.672,177.258 9.703,177.258 Z" stroke-width="2"></path>
                    <polygon stroke-width="2" points="153 173.453 305 173.453 306 173.453 306 172.453 306 166.541 306 165.541 305 165.541 153 165.541 1 165.541 0 165.541 0 166.541 0 172.453 0 173.453 1 173.453"></polygon>
                    <path d="M136.023,171.088 L170.861,171.088 C173.484,171.088 175.752,169.301 176.397,166.789 L176.718,165.541 L175.429,165.541 L131.454,165.541 L130.164,165.541 L130.485,166.789 C131.13,169.301 133.399,171.088 136.023,171.088 Z" stroke-width="2"></path>
                </g>
            </g>
            <g id="Glitch" transform="translate(132.000000, 61.000000)" fill="#FFFFFF">
                <path d="M4.640625,0 L0,11.8432836 L0,60.2462687 L16.5,60.2462687 L16.5,69 L25.78125,69 L34.546875,60.2462687 L47.953125,60.2462687 L66,42.2238806 L66,0 L4.640625,0 Z M59.8125,39.1343284 L49.5,49.4328358 L33,49.4328358 L24.234375,58.1865672 L24.234375,49.4328358 L10.3125,49.4328358 L10.3125,6.17910448 L59.8125,6.17910448 L59.8125,39.1343284 Z M44.680678,27.2526901 L50.9570752,20.9762929 L44.3942404,14.413458 L38.1178432,20.6898553 L31.841446,14.413458 L25.2786112,20.9762929 L31.5550084,27.2526901 L25.2786112,33.5290873 L31.841446,40.0919221 L38.1178432,33.8155249 L44.3942404,40.0919221 L50.9570752,33.5290873 L44.680678,27.2526901 Z"></path>
            </g>
        </g>
    </g>
</svg>