<?xml version="1.0" encoding="UTF-8"?>
<svg width="85px" height="150px" viewBox="0 0 85 150" version="1.1" xmlns="http://www.w3.org/2000/svg" xmlns:xlink="http://www.w3.org/1999/xlink">
    <defs></defs>
    <g id="Assets" stroke="none" stroke-width="1" fill="none" fill-rule="evenodd">
        <g id="Phone">
            <g id="iPhone" stroke="#6441A4" fill="#2C2541">
                <g transform="translate(14.000000, 14.000000)" id="S">
                    <path d="M10.462,0.463 L47,0.463 C52.523,0.463 57,4.94 57,10.463 L57,112 C57,117.523 52.523,122 47,122 L10.462,122 C4.94,122 0.462,117.523 0.462,112 L0.462,10.463 C0.462,4.94 4.939,0.463 10.462,0.463 Z" stroke-width="2"></path>
                    <ellipse stroke-width="2" stroke-linejoin="round" cx="28.731" cy="113.117" rx="5.775" ry="5.787"></ellipse>
                    <rect stroke-width="2" stroke-linejoin="round" x="3.083" y="14.986" width="51.295" height="89.711"></rect>
                    <path d="M23.456,8.346 L34.006,8.346 C34.283,8.346 34.506,8.57 34.506,8.846 L34.506,10.772 C34.506,11.048 34.283,11.272 34.006,11.272 L23.456,11.272 C23.18,11.272 22.956,11.048 22.956,10.772 L22.956,8.846 C22.956,8.57 23.18,8.346 23.456,8.346 Z" stroke-width="2" stroke-linejoin="round"></path>
                </g>
            </g>
            <g id="Glitch" transform="translate(34.000000, 65.000000)" fill="#FFFFFF">
                <path d="M1.1953125,0 L0,3.08955224 L0,15.7164179 L4.25,15.7164179 L4.25,18 L6.640625,18 L8.8984375,15.7164179 L12.3515625,15.7164179 L17,11.0149254 L17,0 L1.1953125,0 Z M15.40625,10.2089552 L12.75,12.8955224 L8.5,12.8955224 L6.2421875,15.1791045 L6.2421875,12.8955224 L2.65625,12.8955224 L2.65625,1.6119403 L15.40625,1.6119403 L15.40625,10.2089552 Z M11.5086595,7.10939741 L13.1567888,5.46126804 L11.4663617,3.77084089 L9.81823233,5.41897026 L8.17010297,3.77084089 L6.47967582,5.46126804 L8.12780518,7.10939741 L6.47967582,8.75752677 L8.17010297,10.4479539 L9.81823233,8.79982456 L11.4663617,10.4479539 L13.1567888,8.75752677 L11.5086595,7.10939741 Z"></path>
            </g>
        </g>
    </g>
</svg>