<?xml version="1.0" encoding="UTF-8"?>
<svg width="1130px" height="727px" viewBox="0 0 1130 727" version="1.1" xmlns="http://www.w3.org/2000/svg" xmlns:xlink="http://www.w3.org/1999/xlink">
    <defs></defs>
    <g id="Assets" stroke="none" stroke-width="1" fill="none" fill-rule="evenodd">
        <g id="TV">
            <g id="SmartTV" stroke="#6441A4" fill="#2C2541">
                <g transform="translate(13.000000, 13.000000)" id="S">
                    <path d="M518.428,612.687 C518.38,612.833 518.287,613.114 518.153,613.523 C517.926,614.205 517.665,614.995 517.368,615.885 C516.522,618.431 515.574,621.267 514.547,624.321 C511.611,633.048 508.631,641.773 505.784,649.917 C505.364,651.12 504.949,652.304 504.54,653.466 C497.755,672.732 492.9,685.192 491.469,686.609 C490.115,687.912 486.224,688.902 479.795,689.789 C478.269,689.999 473.212,690.627 472.424,690.733 C467.268,691.427 465.906,691.769 466.004,693.328 C466.103,694.715 467.843,694.956 474.45,695.331 C479.02,695.591 485.603,695.787 494.151,695.93 C508.36,696.166 526.493,696.247 553.989,696.247 C581.484,696.247 599.617,696.166 613.827,695.93 C622.376,695.787 628.959,695.591 633.53,695.331 C640.133,694.956 641.877,694.715 641.979,693.34 C642.083,691.77 640.722,691.428 635.564,690.734 C634.776,690.628 629.723,690.001 628.201,689.79 C621.772,688.903 617.883,687.914 616.524,686.602 C615.108,685.197 610.297,672.75 603.579,653.506 C603.17,652.332 602.754,651.138 602.333,649.922 C599.512,641.778 596.559,633.052 593.65,624.326 C592.631,621.271 591.693,618.435 590.854,615.89 C590.56,614.999 590.3,614.208 590.077,613.528 C589.943,613.119 589.851,612.838 589.804,612.692 L589.577,612 L588.852,612 L554.115,612 L519.378,612 L518.654,612 L518.428,612.687 Z" stroke-width="2"></path>
                    <rect stroke-width="2" x="131" y="689" width="840" height="15"></rect>
                    <rect stroke-width="2" x="0" y="0" width="1107" height="642"></rect>
                    <rect stroke-width="2" stroke-linejoin="round" x="13" y="13" width="1081" height="616"></rect>
                </g>
            </g>
            <g id="Glitch" transform="translate(452.000000, 216.000000)" fill="#FFFFFF">
                <path d="M15.890625,0 L0,40.6791045 L0,206.932836 L56.5,206.932836 L56.5,237 L88.28125,237 L118.296875,206.932836 L164.203125,206.932836 L226,145.029851 L226,0 L15.890625,0 Z M204.8125,134.41791 L169.5,169.791045 L113,169.791045 L82.984375,199.858209 L82.984375,169.791045 L35.3125,169.791045 L35.3125,21.2238806 L204.8125,21.2238806 L204.8125,134.41791 Z M152.997473,93.6070659 L174.59012,72.0144192 L152.117382,49.5416818 L130.524736,71.1343285 L108.932089,49.5416818 L86.4593516,72.0144192 L108.051998,93.6070659 L86.4593516,115.199713 L108.932089,137.67245 L130.524736,116.079803 L152.117382,137.67245 L174.59012,115.199713 L152.997473,93.6070659 Z"></path>
            </g>
        </g>
    </g>
</svg>