<?xml version="1.0" encoding="UTF-8"?>
<svg width="256px" height="256px" viewBox="0 0 256 256" version="1.1" xmlns="http://www.w3.org/2000/svg" xmlns:xlink="http://www.w3.org/1999/xlink">
    <defs></defs>
    <g id="Assets" stroke="none" stroke-width="1" fill="none" fill-rule="evenodd">
        <g id="Games" fill-rule="nonzero" fill="#FFFFFF">
            <path d="M224,64 L32,64 C20.2666667,64 10.6666667,73.6 10.6666667,85.3333333 L10.6666667,170.666667 C10.6666667,182.4 20.2666667,192 32,192 L224,192 C235.733333,192 245.333333,182.4 245.333333,170.666667 L245.333333,85.3333333 C245.333333,73.6 235.733333,64 224,64 Z M117.333333,138.666667 L85.3333333,138.666667 L85.3333333,170.666667 L64,170.666667 L64,138.666667 L32,138.666667 L32,117.333333 L64,117.333333 L64,85.3333333 L85.3333333,85.3333333 L85.3333333,117.333333 L117.333333,117.333333 L117.333333,138.666667 Z M165.333333,160 C156.48,160 149.333333,152.853333 149.333333,144 C149.333333,135.146667 156.48,128 165.333333,128 C174.186667,128 181.333333,135.146667 181.333333,144 C181.333333,152.853333 174.186667,160 165.333333,160 Z M208,128 C199.146667,128 192,120.853333 192,112 C192,103.146667 199.146667,96 208,96 C216.853333,96 224,103.146667 224,112 C224,120.853333 216.853333,128 208,128 Z" id="Shape"></path>
        </g>
    </g>
</svg>