<?xml version="1.0" encoding="UTF-8"?>
<svg width="256px" height="256px" viewBox="0 0 256 256" version="1.1" xmlns="http://www.w3.org/2000/svg" xmlns:xlink="http://www.w3.org/1999/xlink">
    <defs></defs>
    <g id="Assets" stroke="none" stroke-width="1" fill="none" fill-rule="evenodd">
        <g id="Glitch" fill="#FFFFFF">
            <g transform="translate(24.000000, 19.000000)">
                <path d="M14.625,0 L0,37.4179104 L0,190.343284 L52,190.343284 L52,218 L81.25,218 L108.875,190.343284 L151.125,190.343284 L208,133.402985 L208,0 L14.625,0 Z M188.5,123.641791 L156,156.179104 L104,156.179104 L76.375,183.835821 L76.375,156.179104 L32.5,156.179104 L32.5,19.5223881 L188.5,19.5223881 L188.5,123.641791 Z M140.811834,86.1027019 L160.66755,66.2469852 L139.984677,45.5641119 L120.12896,65.4198286 L100.273244,45.5641119 L79.5903702,66.2469852 L99.446087,86.1027019 L79.5903702,105.958419 L100.273244,126.641292 L120.12896,106.785575 L139.984677,126.641292 L160.66755,105.958419 L140.811834,86.1027019 Z"></path>
            </g>
        </g>
    </g>
</svg>